<svg width="121" height="37" viewBox="0 0 121 37" fill="none" xmlns="http://www.w3.org/2000/svg">
<path d="M0.114014 9.76002H5.05401L9.00601 22.528H9.08201L12.768 9.76002H17.708L21.66 22.528H21.736L25.536 9.76002H30.134L23.94 28H19.418L15.086 15.536H15.01L11.172 28H6.46001L0.114014 9.76002Z" fill="#004C6D"/>
<path d="M32.8282 9.76002H37.1602V12.496H37.2362C37.8948 11.3813 38.7815 10.5707 39.8962 10.064C41.0108 9.55735 42.2142 9.30402 43.5062 9.30402C44.8995 9.30402 46.1535 9.55735 47.2682 10.064C48.3828 10.5453 49.3328 11.2167 50.1182 12.078C50.9035 12.9393 51.4988 13.9527 51.9042 15.118C52.3095 16.2833 52.5122 17.5373 52.5122 18.88C52.5122 20.2227 52.2968 21.4767 51.8662 22.642C51.4355 23.8073 50.8275 24.8207 50.0422 25.682C49.2822 26.5433 48.3575 27.2273 47.2682 27.734C46.1788 28.2153 44.9882 28.456 43.6962 28.456C42.8348 28.456 42.0748 28.3673 41.4162 28.19C40.7575 28.0127 40.1748 27.7847 39.6682 27.506C39.1615 27.2273 38.7308 26.936 38.3762 26.632C38.0215 26.3027 37.7302 25.986 37.5022 25.682H37.3882V36.664H32.8282V9.76002ZM47.9522 18.88C47.9522 18.1707 47.8255 17.4867 47.5722 16.828C47.3442 16.1693 46.9895 15.5867 46.5082 15.08C46.0522 14.5733 45.4948 14.168 44.8362 13.864C44.1775 13.56 43.4302 13.408 42.5942 13.408C41.7582 13.408 41.0108 13.56 40.3522 13.864C39.6935 14.168 39.1235 14.5733 38.6422 15.08C38.1862 15.5867 37.8315 16.1693 37.5782 16.828C37.3502 17.4867 37.2362 18.1707 37.2362 18.88C37.2362 19.5893 37.3502 20.2733 37.5782 20.932C37.8315 21.5907 38.1862 22.1733 38.6422 22.68C39.1235 23.1867 39.6935 23.592 40.3522 23.896C41.0108 24.2 41.7582 24.352 42.5942 24.352C43.4302 24.352 44.1775 24.2 44.8362 23.896C45.4948 23.592 46.0522 23.1867 46.5082 22.68C46.9895 22.1733 47.3442 21.5907 47.5722 20.932C47.8255 20.2733 47.9522 19.5893 47.9522 18.88Z" fill="#004C6D"/>
<path d="M62.6157 11.926H63.7937C64.4524 11.926 65.0857 11.888 65.6937 11.812C66.327 11.736 66.8844 11.5713 67.3657 11.318C67.8724 11.0647 68.2777 10.6973 68.5817 10.216C68.8857 9.73468 69.0377 9.08868 69.0377 8.27801C69.0377 7.23935 68.683 6.39068 67.9737 5.73201C67.2644 5.07335 66.3397 4.74401 65.1997 4.74401C64.2877 4.74401 63.4644 5.01001 62.7297 5.54202C62.0204 6.04868 61.501 6.77068 61.1717 7.70801L56.3457 6.41602C56.6497 5.42801 57.0804 4.56668 57.6377 3.83201C58.195 3.09735 58.8537 2.50201 59.6137 2.04601C60.3737 1.56468 61.2097 1.21001 62.1217 0.982015C63.0337 0.754015 63.9837 0.640015 64.9717 0.640015C66.137 0.640015 67.239 0.792015 68.2777 1.09602C69.3164 1.40001 70.2284 1.85601 71.0137 2.46401C71.799 3.04668 72.4197 3.79401 72.8757 4.70601C73.357 5.59268 73.5977 6.63135 73.5977 7.82201C73.5977 9.26601 73.1924 10.558 72.3817 11.698C71.571 12.8127 70.4437 13.5473 68.9997 13.902V13.978C70.7224 14.2313 72.027 14.966 72.9137 16.182C73.8004 17.398 74.2437 18.842 74.2437 20.514C74.2437 21.806 73.9904 22.946 73.4837 23.934C73.0024 24.922 72.3437 25.758 71.5077 26.442C70.6717 27.1007 69.6964 27.6073 68.5817 27.962C67.4924 28.2913 66.3524 28.456 65.1617 28.456C64.047 28.456 62.9957 28.3293 62.0077 28.076C61.0197 27.848 60.1204 27.4807 59.3097 26.974C58.5244 26.4673 57.8404 25.8213 57.2577 25.036C56.675 24.2253 56.2317 23.2627 55.9277 22.148L60.7917 20.856C61.0704 21.9707 61.5644 22.832 62.2737 23.44C62.983 24.048 63.9457 24.352 65.1617 24.352C65.7697 24.352 66.3397 24.2507 66.8717 24.048C67.429 23.8453 67.9104 23.5667 68.3157 23.212C68.7464 22.832 69.0757 22.3887 69.3037 21.882C69.557 21.35 69.6837 20.7673 69.6837 20.134C69.6837 19.2727 69.4937 18.576 69.1137 18.044C68.759 17.4867 68.2904 17.0687 67.7077 16.79C67.1504 16.486 66.517 16.2833 65.8077 16.182C65.0984 16.0807 64.4017 16.03 63.7177 16.03H62.6157V11.926Z" fill="#004C6D"/>
<path d="M93.274 1.09602L86.814 11.052L86.89 11.128C87.1687 10.976 87.536 10.862 87.992 10.786C88.4733 10.71 88.942 10.672 89.398 10.672C90.5886 10.672 91.678 10.9 92.666 11.356C93.654 11.812 94.5026 12.4327 95.212 13.218C95.9466 14.0033 96.504 14.9153 96.884 15.954C97.2893 16.9927 97.492 18.0947 97.492 19.26C97.492 20.6533 97.2513 21.92 96.77 23.06C96.2886 24.2 95.6173 25.1753 94.756 25.986C93.92 26.7713 92.9066 27.3793 91.716 27.81C90.5506 28.2407 89.284 28.456 87.916 28.456C86.4973 28.456 85.2053 28.2533 84.04 27.848C82.8747 27.4173 81.8613 26.8093 81 26.024C80.164 25.2387 79.5053 24.276 79.024 23.136C78.568 21.996 78.34 20.7167 78.34 19.298C78.34 17.8793 78.568 16.6 79.024 15.46C79.5053 14.2947 80.1133 13.1167 80.848 11.926L87.726 1.09602H93.274ZM83.128 19.222C83.128 19.906 83.2546 20.552 83.508 21.16C83.7613 21.7427 84.1033 22.262 84.534 22.718C84.99 23.1487 85.5093 23.4907 86.092 23.744C86.7 23.9973 87.346 24.124 88.03 24.124C88.714 24.124 89.3473 23.9973 89.93 23.744C90.538 23.4907 91.0573 23.1487 91.488 22.718C91.944 22.262 92.2987 21.7427 92.552 21.16C92.8053 20.552 92.932 19.906 92.932 19.222C92.932 18.538 92.8053 17.9047 92.552 17.322C92.2987 16.714 91.944 16.1947 91.488 15.764C91.0573 15.308 90.538 14.9533 89.93 14.7C89.3473 14.4467 88.714 14.32 88.03 14.32C87.346 14.32 86.7 14.4467 86.092 14.7C85.5093 14.9533 84.99 15.308 84.534 15.764C84.1033 16.1947 83.7613 16.714 83.508 17.322C83.2546 17.9047 83.128 18.538 83.128 19.222Z" fill="#004C6D"/>
<path d="M100.676 14.548C100.676 12.42 100.841 10.6087 101.17 9.11402C101.525 7.59401 101.981 6.32735 102.538 5.31402C103.096 4.27535 103.716 3.45201 104.4 2.84401C105.11 2.21068 105.819 1.74201 106.528 1.43801C107.263 1.10868 107.96 0.893348 108.618 0.792015C109.302 0.690681 109.898 0.640015 110.404 0.640015C110.911 0.640015 111.494 0.690681 112.152 0.792015C112.836 0.893348 113.533 1.10868 114.242 1.43801C114.977 1.74201 115.686 2.21068 116.37 2.84401C117.08 3.45201 117.713 4.27535 118.27 5.31402C118.828 6.32735 119.271 7.59401 119.6 9.11402C119.955 10.6087 120.132 12.42 120.132 14.548C120.132 16.676 119.955 18.5 119.6 20.02C119.271 21.5147 118.828 22.7813 118.27 23.82C117.713 24.8333 117.08 25.6567 116.37 26.29C115.686 26.898 114.977 27.3667 114.242 27.696C113.533 28 112.836 28.2027 112.152 28.304C111.494 28.4053 110.911 28.456 110.404 28.456C109.898 28.456 109.302 28.4053 108.618 28.304C107.96 28.2027 107.263 28 106.528 27.696C105.819 27.3667 105.11 26.898 104.4 26.29C103.716 25.6567 103.096 24.8333 102.538 23.82C101.981 22.7813 101.525 21.5147 101.17 20.02C100.841 18.5 100.676 16.676 100.676 14.548ZM105.236 14.548C105.236 15.384 105.287 16.3593 105.388 17.474C105.515 18.5633 105.756 19.602 106.11 20.59C106.465 21.578 106.984 22.414 107.668 23.098C108.352 23.782 109.264 24.124 110.404 24.124C111.544 24.124 112.456 23.782 113.14 23.098C113.824 22.414 114.344 21.578 114.698 20.59C115.053 19.602 115.281 18.5633 115.382 17.474C115.509 16.3593 115.572 15.384 115.572 14.548C115.572 13.712 115.509 12.7493 115.382 11.66C115.281 10.5453 115.053 9.49401 114.698 8.50602C114.344 7.51801 113.824 6.68201 113.14 5.99801C112.456 5.31401 111.544 4.97202 110.404 4.97202C109.264 4.97202 108.352 5.31401 107.668 5.99801C106.984 6.68201 106.465 7.51801 106.11 8.50602C105.756 9.49401 105.515 10.5453 105.388 11.66C105.287 12.7493 105.236 13.712 105.236 14.548Z" fill="#004C6D"/>
</svg>
